<?xml version="1.0" standalone="no"?>
<!DOCTYPE svg PUBLIC "-//W3C//DTD SVG 20010904//EN"
 "http://www.w3.org/TR/2001/REC-SVG-20010904/DTD/svg10.dtd">
<svg version="1.0" xmlns="http://www.w3.org/2000/svg"
 width="259.000000pt" height="259.000000pt" viewBox="0 0 259.000000 259.000000"
 preserveAspectRatio="xMidYMid meet">
<metadata>
Created by potrace 1.14, written by Peter Selinger 2001-2017
</metadata>
<g transform="translate(0.000000,259.000000) scale(0.100000,-0.100000)"
fill="#000000" stroke="none">
<path d="M957 2353 c-2 -5 -4 -212 -3 -461 1 -248 -2 -452 -5 -452 -3 0 -23
21 -45 46 -101 119 -246 215 -376 249 -248 65 -451 -114 -509 -449 -19 -109
-6 -339 24 -456 46 -174 99 -279 186 -373 165 -176 399 -191 639 -40 29 18 57
33 62 33 6 0 10 5 10 11 0 6 7 4 15 -5 13 -13 114 -14 818 -13 l802 2 0 958 1
957 -808 0 c-444 0 -809 -3 -811 -7z m-369 -777 c39 -21 100 -66 140 -104 65
-63 221 -262 223 -286 1 -6 2 -137 3 -291 l1 -280 -30 -23 c-118 -92 -278
-126 -398 -84 -143 51 -327 251 -378 411 -43 136 -34 360 19 497 27 69 92 150
142 179 41 23 53 26 126 22 70 -4 92 -10 152 -41z"/>
<path d="M1549 353 c-6 -16 -8 -43 -5 -62 10 -62 21 -51 21 20 0 38 -1 69 -3
69 -1 0 -7 -12 -13 -27z"/>
<path d="M1590 330 c0 -52 13 -67 24 -27 l7 22 16 -22 c8 -13 22 -23 30 -23
12 0 13 3 4 14 -7 8 -9 25 -5 41 8 31 -7 45 -48 45 -27 0 -28 -2 -28 -50z m60
22 c0 -14 -11 -21 -26 -15 -21 8 -17 23 6 23 11 0 20 -4 20 -8z"/>
<path d="M1699 373 c-1 -5 -2 -27 -3 -50 -2 -40 -1 -41 31 -45 37 -4 57 9 21
14 -28 4 -36 28 -9 28 11 0 23 5 26 10 4 6 -7 10 -25 10 -18 0 -29 4 -25 10 3
6 17 10 31 10 13 0 24 5 24 10 0 11 -69 14 -71 3z"/>
<path d="M1801 371 c-18 -12 -7 -41 19 -48 11 -3 20 -12 20 -19 0 -16 -16 -19
-25 -4 -9 15 -25 12 -25 -4 0 -16 25 -24 52 -18 24 6 33 35 13 47 -9 6 -24 16
-33 23 -15 12 -13 13 11 7 21 -4 28 -2 25 7 -6 16 -38 21 -57 9z"/>
<path d="M1889 368 c-5 -66 -3 -88 6 -88 13 0 18 87 5 95 -5 3 -10 0 -11 -7z"/>
<path d="M1928 368 c-4 -11 -3 -38 1 -80 2 -16 69 -8 75 8 12 31 6 63 -13 74
-27 14 -58 13 -63 -2z m60 -39 c2 -18 -3 -29 -14 -33 -21 -8 -24 -6 -29 33 -3
28 -1 32 18 29 15 -2 23 -11 25 -29z"/>
<path d="M2037 373 c-4 -3 -7 -26 -7 -50 l0 -43 43 1 c37 1 38 2 13 8 -38 8
-47 31 -12 31 13 0 28 5 31 10 4 6 -7 10 -24 10 -17 0 -31 5 -31 10 0 6 11 10
24 10 14 0 28 5 31 10 7 11 -57 14 -68 3z"/>
<path d="M2128 329 c-3 -51 7 -65 21 -27 l8 22 14 -22 c24 -38 39 -27 39 28 0
55 -17 69 -22 18 l-4 -33 -13 27 c-24 47 -39 42 -43 -13z"/>
<path d="M2225 370 c-3 -5 2 -10 13 -10 16 0 19 -6 16 -40 -2 -22 1 -42 7 -45
9 -6 11 0 11 49 1 19 7 30 19 33 10 3 16 9 13 14 -7 12 -71 11 -79 -1z"/>
<path d="M2320 330 c0 -27 5 -50 10 -50 6 0 10 23 10 50 0 28 -4 50 -10 50 -5
0 -10 -22 -10 -50z"/>
<path d="M2372 333 c-11 -26 -19 -49 -17 -51 2 -2 12 3 24 10 17 10 25 10 41
0 11 -6 22 -12 25 -12 9 0 -32 94 -42 97 -6 2 -19 -18 -31 -44z m33 -3 c3 -5
1 -10 -4 -10 -6 0 -11 5 -11 10 0 6 2 10 4 10 3 0 8 -4 11 -10z"/>
<path d="M2469 373 c-1 -4 -3 -27 -5 -49 l-4 -42 40 -4 c25 -2 39 0 37 7 -2 5
-12 10 -23 10 -25 -1 -33 12 -27 45 2 16 -1 31 -7 35 -5 3 -10 3 -11 -2z"/>
<path d="M2555 315 c0 -66 8 -83 19 -42 9 36 7 72 -6 90 -11 15 -13 7 -13 -48z"/>
</g>
</svg>
